<?xml version="1.0" encoding="utf-8"?>
<!-- Generator: Adobe Illustrator 15.1.0, SVG Export Plug-In . SVG Version: 6.00 Build 0)  -->
<!DOCTYPE svg PUBLIC "-//W3C//DTD SVG 1.1 Basic//EN" "http://www.w3.org/Graphics/SVG/1.1/DTD/svg11-basic.dtd">
<svg version="1.1" baseProfile="basic" id="Layer_1"
	 xmlns="http://www.w3.org/2000/svg" xmlns:xlink="http://www.w3.org/1999/xlink" x="0px" y="0px" width="46px" height="46px"
	 viewBox="0 0 46 46" xml:space="preserve">
<g>
	
		<linearGradient id="SVGID_1_" gradientUnits="userSpaceOnUse" x1="1.3691" y1="455.5723" x2="10.8755" y2="455.5723" gradientTransform="matrix(1 0 0 -1 7 490)">
		<stop  offset="0" style="stop-color:#EAA522"/>
		<stop  offset="0.2168" style="stop-color:#ECAB20"/>
		<stop  offset="0.5531" style="stop-color:#F2BB1A"/>
		<stop  offset="0.9649" style="stop-color:#FDD601"/>
		<stop  offset="1" style="stop-color:#FED900"/>
	</linearGradient>
	<polygon fill="url(#SVGID_1_)" points="11.875,36.72 8.369,31.841 14.37,32.136 17.875,37.016 	"/>
	<path fill="#AD7F2D" d="M8.571,31.951l5.746,0.283l3.356,4.672l-5.746-0.283L8.571,31.951 M8.167,31.731l0.242,0.337l3.356,4.672
		l0.056,0.079l0.097,0.004l5.745,0.283l0.415,0.021l-0.242-0.337l-3.356-4.672l-0.057-0.079l-0.096-0.004l-5.746-0.283L8.167,31.731
		L8.167,31.731z"/>
</g>
<linearGradient id="SVGID_2_" gradientUnits="userSpaceOnUse" x1="7.7925" y1="453.1162" x2="7.7925" y2="457.752" gradientTransform="matrix(1 0 0 -1 7 490)">
	<stop  offset="0" style="stop-color:#FFC907"/>
	<stop  offset="0.1872" style="stop-color:#F4C217"/>
	<stop  offset="0.6808" style="stop-color:#E2B424"/>
	<stop  offset="1" style="stop-color:#DBAF28"/>
</linearGradient>
<polygon fill="url(#SVGID_2_)" points="14.325,32.248 11.953,36.611 17.632,36.884 "/>
<g>
	
		<linearGradient id="SVGID_3_" gradientUnits="userSpaceOnUse" x1="9.6553" y1="475.3691" x2="20.0704" y2="462.9569" gradientTransform="matrix(1 0 0 -1 7 490)">
		<stop  offset="0" style="stop-color:#FEED81"/>
		<stop  offset="0.2532" style="stop-color:#F7DA61"/>
		<stop  offset="0.5718" style="stop-color:#F0C63C"/>
		<stop  offset="0.8321" style="stop-color:#ECBA26"/>
		<stop  offset="1" style="stop-color:#EBB61F"/>
	</linearGradient>
	<polygon fill="url(#SVGID_3_)" points="15.493,19.322 25.004,7.625 28.234,22.351 18.722,34.048 	"/>
	<path fill="#AD7F2D" d="M24.951,7.849l3.175,14.476l-9.351,11.499l-3.174-14.476L24.951,7.849 M25.058,7.401l-0.262,0.322
		l-9.35,11.499l-0.061,0.075l0.021,0.094l3.175,14.476l0.089,0.406l0.262-0.322l9.35-11.499l0.061-0.075l-0.021-0.094L25.146,7.806
		L25.058,7.401L25.058,7.401z"/>
</g>
<linearGradient id="SVGID_4_" gradientUnits="userSpaceOnUse" x1="13.8071" y1="465.0781" x2="17.2909" y2="460.9263" gradientTransform="matrix(1 0 0 -1 7 490)">
	<stop  offset="0" style="stop-color:#D58D28"/>
	<stop  offset="0.1465" style="stop-color:#D7922B"/>
	<stop  offset="0.3738" style="stop-color:#DEA239"/>
	<stop  offset="0.6533" style="stop-color:#EABF53"/>
	<stop  offset="0.9719" style="stop-color:#FBE97D"/>
	<stop  offset="1" style="stop-color:#FEED81"/>
</linearGradient>
<polygon fill="url(#SVGID_4_)" points="28.027,22.325 20.832,24.902 18.775,33.703 "/>
<polyline fill="none" stroke="#AD7F2D" stroke-width="0.2002" stroke-miterlimit="10" points="24.952,8.33 18.01,37.072 
	19.573,41.606 "/>
<g>
	<polygon fill="#C96828" points="25.148,17.316 29.852,16.253 27.754,20.595 23.05,21.658 	"/>
	<path fill="#733D19" d="M29.629,16.43l-1.96,4.059l-4.396,0.993l1.96-4.059L29.629,16.43 M30.074,16.076l-0.499,0.113l-4.396,0.994
		l-0.116,0.026l-0.052,0.107l-1.96,4.059l-0.223,0.461l0.499-0.113l4.396-0.993l0.116-0.026l0.052-0.107l1.96-4.059L30.074,16.076
		L30.074,16.076z"/>
</g>
<g>
	
		<linearGradient id="SVGID_5_" gradientUnits="userSpaceOnUse" x1="19.6563" y1="458.9258" x2="35.0322" y2="458.9258" gradientTransform="matrix(1 0 0 -1 7 490)">
		<stop  offset="0" style="stop-color:#D95726"/>
		<stop  offset="0.0449" style="stop-color:#DA5A26"/>
		<stop  offset="0.4525" style="stop-color:#E37625"/>
		<stop  offset="0.7854" style="stop-color:#E98724"/>
		<stop  offset="1" style="stop-color:#EB8C23"/>
	</linearGradient>
	<polygon fill="url(#SVGID_5_)" points="26.656,32.151 33.824,27.366 42.032,29.996 34.864,34.781 	"/>
	<path fill="#733D19" d="M33.848,27.536l7.833,2.509l-6.841,4.567l-7.834-2.509L33.848,27.536 M33.8,27.197l-0.123,0.083
		l-6.841,4.567l-0.53,0.354l0.607,0.194l7.833,2.509l0.142,0.045l0.123-0.083l6.842-4.567l0.53-0.354l-0.607-0.194l-7.833-2.509
		L33.8,27.197L33.8,27.197z"/>
</g>
<polyline fill="none" stroke="#733D19" stroke-width="0.3074" stroke-miterlimit="10" points="15.577,15.787 22.916,21.853 
	26.451,32.151 22.493,44.449 "/>
<g>
	
		<linearGradient id="SVGID_6_" gradientUnits="userSpaceOnUse" x1="-2.314" y1="477.415" x2="13.2388" y2="477.415" gradientTransform="matrix(1 0 0 -1 7 490)">
		<stop  offset="0" style="stop-color:#D95726"/>
		<stop  offset="0.188" style="stop-color:#E06925"/>
		<stop  offset="0.5344" style="stop-color:#EC8422"/>
		<stop  offset="0.8175" style="stop-color:#F4951E"/>
		<stop  offset="1" style="stop-color:#F99B1C"/>
	</linearGradient>
	<polygon fill="url(#SVGID_6_)" points="9.162,16.334 4.686,5.741 15.763,8.835 20.239,19.429 	"/>
	<path fill="#733D19" d="M4.902,5.931l10.769,3.009l4.352,10.299L9.254,16.23L4.902,5.931 M4.47,5.55l0.202,0.478l4.352,10.299
		l0.047,0.111l0.116,0.032l10.769,3.009l0.5,0.14l-0.202-0.478l-4.352-10.3l-0.047-0.111l-0.116-0.033L4.97,5.69L4.47,5.55
		L4.47,5.55z"/>
</g>
<polygon opacity="0.43" fill="#D62327" points="20.019,19.229 18.53,15.774 16.528,18.227 "/>
<linearGradient id="SVGID_7_" gradientUnits="userSpaceOnUse" x1="2.2539" y1="472.8086" x2="13.0225" y2="472.8086" gradientTransform="matrix(1 0 0 -1 7 490)">
	<stop  offset="0.0012" style="stop-color:#991B1E"/>
	<stop  offset="0.3105" style="stop-color:#AB462A"/>
	<stop  offset="0.6056" style="stop-color:#BA6437"/>
	<stop  offset="0.8454" style="stop-color:#C47640"/>
	<stop  offset="1" style="stop-color:#C77C44"/>
</linearGradient>
<polygon opacity="0.43" fill="url(#SVGID_7_)" points="20.022,19.239 14.911,15.144 9.254,16.23 "/>
<linearGradient id="SVGID_8_" gradientUnits="userSpaceOnUse" x1="20.0063" y1="457.6719" x2="34.6816" y2="457.6719" gradientTransform="matrix(1 0 0 -1 7 490)">
	<stop  offset="0" style="stop-color:#FED900"/>
	<stop  offset="0.221" style="stop-color:#F8D44E"/>
	<stop  offset="0.4761" style="stop-color:#F3CF7A"/>
	<stop  offset="0.7003" style="stop-color:#EFCC91"/>
	<stop  offset="0.8826" style="stop-color:#EDCAA0"/>
	<stop  offset="1" style="stop-color:#ECC9A5"/>
</linearGradient>
<polygon fill="url(#SVGID_8_)" points="27.006,32.103 34.84,34.612 41.682,30.045 "/>
<polygon opacity="0.43" fill="#D62327" points="26.965,17.025 25.233,17.423 23.281,21.481 27.722,20.466 "/>
<line fill="none" stroke="#733D19" stroke-width="0.1501" stroke-miterlimit="10" x1="18.664" y1="15.45" x2="16.4" y2="18.266"/>
<line fill="none" stroke="#733D19" stroke-width="0.1501" stroke-miterlimit="10" x1="27.026" y1="16.902" x2="27.777" y2="20.48"/>
</svg>
